# xmcd
#
# Track frame offsets:
#  150
#  20822
#  41651
#  60745
#  82606
#  100761
#  116265
#  131706
#  150154
#  170466
#  190793
#
# Disc length: 2785 seconds
#
# Revision: 0
# Processed by: cddbd v1.5.1PL2 Copyright (c) Steve Scherf et al.
# Submitted via: Collectorz.com_Music_Collector 6.9
#
DISCID=7d0adf0b
DTITLE=Roy C. - I'm Workin' Hard For You Baby - Roy C.
DYEAR=1900
DGENRE=
TTITLE0=I'm Workin' Hard For You Baby
TTITLE1=Going Back Home To My Mother
TTITLE2=Out Of All The Things I Could Have Been
TTITLE3=Everybody's Down On Me
TTITLE4=Living For The Weekend
TTITLE5=Musical Intro With Rock Me
TTITLE6=I'M gonna Sneek Back Home
TTITLE7=Somebody Has Taken My Love Away
TTITLE8=You Turned My World Around
TTITLE9=I'm Hurting
TTITLE10=Nobody Knows The Trouble I've Seen
EXTD=
EXTT0=
EXTT1=
EXTT2=
EXTT3=
EXTT4=
EXTT5=
EXTT6=
EXTT7=
EXTT8=
EXTT9=
EXTT10=
PLAYORDER=
